<?xml version="1.0" encoding="UTF-8"?>
<svg xmlns="http://www.w3.org/2000/svg" version="1.1" xmlns:xlink="http://www.w3.org/1999/xlink" viewBox="0 0 57 56">
  <defs>
    <style>
      .cls-1, .cls-2 {
        opacity: .3;
      }

      .cls-3 {
        fill: #231f20;
      }

      .cls-2 {
        fill: #fff;
      }

      .cls-4 {
        fill: none;
        stroke: #dedcd9;
        stroke-miterlimit: 10;
        stroke-width: 2px;
      }

      .cls-5 {
        clip-path: url(#clippath);
      }
    </style>
    <clipPath id="clippath">
      <path class="cls-4" d="M54,28c0,14.36-11.64,26-26,26S2,42.36,2,28,13.64,2,28,2c14.36,0,26,11.64,26,26Z"/>
    </clipPath>
  </defs>
  
  <g>
    <g id="Layer_1">
      <g>
        <g class="cls-5">
          <g class="cls-1">
            <path class="cls-3" d="M56,9v-2h-13.16c-2.95-4.58-5.84-7-5.84-7h-2s2.89,2.42,5.84,7h-4.92c-1.47-4.58-2.92-7-2.92-7h-2s1.45,2.42,2.92,7h-4.92V0h-2v7h-4.92c1.47-4.58,2.92-7,2.92-7h-2s-1.45,2.42-2.92,7h-4.92c2.94-4.58,5.84-7,5.84-7h-2s-2.89,2.42-5.84,7H0v2h11.96c-1.27,2.26-2.47,4.94-3.38,8H0v2h8.05c-.58,2.45-.95,5.12-1.03,8H0v2h7.02c.07,2.88.45,5.55,1.03,8H0v2h8.58c.9,3.06,2.11,5.74,3.38,8H0v2h13.16c2.94,4.58,5.84,7,5.84,7h2s-2.89-2.42-5.84-7h4.92c1.47,4.58,2.92,7,2.92,7h2s-1.45-2.42-2.92-7h4.92v7h2v-7h4.92c-1.47,4.58-2.92,7-2.92,7h2s1.45-2.42,2.92-7h4.92c-2.95,4.58-5.84,7-5.84,7h2s2.89-2.42,5.84-7h13.16v-2h-11.96c1.27-2.26,2.47-4.94,3.38-8h8.58v-2h-8.05c.58-2.45.95-5.12,1.03-8h7.02v-2h-7.02c-.07-2.88-.45-5.55-1.03-8h8.05v-2h-8.58c-.9-3.06-2.11-5.74-3.38-8h11.96ZM34.52,9c.64,2.26,1.24,4.94,1.69,8h-7.21v-8h5.52ZM27,29v8h-7.48c-.29-2.45-.48-5.12-.51-8h7.99ZM19.01,27c.04-2.88.22-5.55.51-8h7.48v8h-7.99ZM29,29h7.99c-.04,2.88-.22,5.55-.51,8h-7.48v-8ZM29,27v-8h7.48c.29,2.45.48,5.12.51,8h-7.99ZM27,9v8h-7.21c.45-3.06,1.05-5.74,1.69-8h5.52ZM13.96,9h5.52c-.64,2.26-1.24,4.94-1.69,8h-7.21c.9-3.06,2.11-5.74,3.38-8ZM10.05,19h7.48c-.29,2.45-.48,5.12-.51,8h-7.99c.07-2.88.45-5.55,1.03-8ZM9.02,29h7.99c.04,2.88.22,5.55.51,8h-7.48c-.58-2.45-.95-5.12-1.03-8ZM13.96,47c-1.27-2.26-2.47-4.94-3.38-8h7.21c.45,3.06,1.05,5.74,1.69,8h-5.52ZM21.48,47c-.64-2.26-1.24-4.94-1.69-8h7.21v8h-5.52ZM29,47v-8h7.21c-.45,3.06-1.05,5.74-1.69,8h-5.52ZM42.04,47h-5.52c.64-2.26,1.24-4.94,1.69-8h7.21c-.9,3.06-2.11,5.74-3.38,8ZM45.95,37h-7.48c.29-2.45.48-5.12.51-8h7.99c-.07,2.88-.45,5.55-1.03,8ZM46.98,27h-7.99c-.04-2.88-.22-5.55-.51-8h7.48c.58,2.45.95,5.12,1.03,8ZM45.42,17h-7.21c-.45-3.06-1.05-5.74-1.69-8h5.52c1.27,2.26,2.47,4.94,3.38,8Z"/>
          </g>
          <polygon class="cls-2" points="1 0 1 48.33 57 16 57 0 1 0"/>
        </g>
        <path class="cls-4" d="M54,28c0,14.36-11.64,26-26,26S2,42.36,2,28,13.64,2,28,2c14.36,0,26,11.64,26,26Z"/>
      </g>
    </g>
  </g>
</svg>